<?xml version="1.0" encoding="UTF-8"?>
<svg id="Layer_2" data-name="Layer 2" xmlns="http://www.w3.org/2000/svg" viewBox="0 0 160.66 33.06">
  <defs>
    <style>
      .cls-1 {
        fill: #536ab2;
      }
    </style>
  </defs>
  <g id="Layer_1-2" data-name="Layer 1">
    <g>
      <path class="cls-1" d="M0,13.67c.47,0,.87-.12,1.22-.37.35-.21.63-.52.84-.93.45-.84.67-1.85.67-3.03v-5.15c.02-1.26.37-2.24,1.05-2.94.65-.69,1.43-1.03,2.36-1.03h2.96v2.35h-1.71c-.56.02-.96.32-1.2.9-.23.6-.34,1.3-.34,2.09v4.64c0,.8-.11,1.46-.33,1.99-.21.57-.49,1.04-.83,1.41-.69.72-1.24,1.12-1.65,1.21v.07c.19.04.44.13.76.3.32.19.62.46.9.83.34.36.62.83.83,1.41.22.58.33,1.28.33,2.13v4.61c0,.76.11,1.43.34,2.01.24.63.64.96,1.2.98h1.71v2.35h-2.96c-.93-.02-1.71-.39-2.36-1.09-.68-.69-1.03-1.66-1.05-2.9v-5.08c0-1.25-.22-2.28-.67-3.09-.46-.84-1.14-1.28-2.05-1.3v-2.38Z"/>
      <path class="cls-1" d="M28.87,18.68c-.55,2.38-1.58,4.2-3.12,5.48-1.58,1.26-3.45,1.9-5.6,1.9-1.95-.05-3.58-.54-4.88-1.48-1.33-.9-2.29-1.95-2.89-3.13-.18-.39-.35-.76-.49-1.11-.14-.36-.25-.82-.34-1.37-.17-1.03-.26-3.01-.26-5.94s.09-4.97.26-5.98c.18-1.01.46-1.82.83-2.44.6-1.18,1.57-2.24,2.89-3.16,1.31-.94,2.93-1.42,4.89-1.44,2.39.02,4.35.75,5.86,2.19,1.51,1.45,2.46,3.25,2.86,5.39h-3.99c-.31-1.03-.87-1.91-1.67-2.64-.84-.69-1.86-1.05-3.07-1.07-.89.02-1.65.21-2.29.55-.65.35-1.17.79-1.57,1.32-.49.55-.81,1.26-.97,2.13-.18.92-.27,2.64-.27,5.16s.09,4.23.27,5.13c.16.89.48,1.61.97,2.17.4.53.92.96,1.57,1.29.64.39,1.4.58,2.29.58,2.12,0,3.7-1.17,4.74-3.51h3.99Z"/>
      <path class="cls-1" d="M30.95,16.7c0-1.93.15-3.4.46-4.44.32-1.01.81-1.86,1.46-2.55.49-.61,1.17-1.15,2.04-1.63.86-.45,1.97-.69,3.32-.72,1.4.02,2.53.26,3.39.72.85.48,1.51,1.03,1.97,1.63.7.69,1.2,1.54,1.49,2.55.28,1.03.42,2.51.42,4.43s-.14,3.39-.43,4.39c-.29,1.01-.79,1.88-1.5,2.62-.23.27-.5.53-.83.79-.29.29-.68.54-1.14.76-.86.5-1.99.77-3.39.79-1.35-.02-2.46-.29-3.32-.79-.87-.46-1.55-.97-2.04-1.55-.66-.74-1.15-1.61-1.46-2.62-.31-1.01-.46-2.47-.46-4.39ZM41.97,16.73c0-1.31-.06-2.26-.17-2.86-.11-.58-.35-1.08-.7-1.52-.26-.41-.65-.73-1.16-.97-.49-.25-1.06-.37-1.71-.37-.6,0-1.16.12-1.67.37-.49.24-.89.56-1.19.97-.31.44-.53.94-.67,1.52-.14.6-.21,1.54-.21,2.82s.07,2.2.21,2.79c.14.6.36,1.13.67,1.59.31.35.71.66,1.19.94.51.26,1.07.39,1.67.39.65,0,1.22-.13,1.71-.39.51-.27.9-.58,1.16-.94.35-.46.59-.99.7-1.59.11-.59.17-1.5.17-2.75Z"/>
      <path class="cls-1" d="M60.4,23.94c-1.17,1.36-2.69,2.07-4.58,2.12-1.07-.02-1.98-.25-2.74-.69-.79-.42-1.46-.99-1.99-1.69-.49-.57-.81-1.35-.97-2.34-.19-.94-.29-2.49-.29-4.64s.1-3.75.29-4.68c.16-.94.48-1.69.97-2.27,1-1.53,2.58-2.32,4.73-2.38.91,0,1.75.19,2.52.58.71.41,1.4.93,2.06,1.57V.21h3.55v25.63h-3.55v-1.9ZM56.91,11.02c-.84,0-1.48.15-1.92.44-.49.32-.85.75-1.07,1.31-.22.55-.36,1.15-.43,1.8-.07.69-.1,1.41-.1,2.13s.03,1.37.1,2.03c.07.69.21,1.32.43,1.87.23.53.58.96,1.07,1.31.44.33,1.08.49,1.92.49s1.5-.18,1.99-.53c.49-.34.82-.79,1-1.34.23-.55.38-1.17.46-1.85.02-.67.03-1.33.03-1.98,0-.71-.01-1.38-.03-2.03-.08-.65-.23-1.25-.46-1.8-.18-.55-.52-1-1-1.34-.49-.34-1.15-.51-1.99-.51Z"/>
      <path class="cls-1" d="M71.19,18.1c0,1.47.41,2.58,1.23,3.34.76.77,1.76,1.16,3,1.16,1.44,0,2.73-.59,3.87-1.78l2.57,2.27c-1.8,1.99-3.93,2.98-6.37,2.95-.93,0-1.84-.14-2.72-.42-.44-.15-.87-.36-1.29-.62-.44-.22-.86-.5-1.24-.83-.75-.68-1.36-1.63-1.82-2.85-.51-1.17-.77-2.7-.77-4.57s.22-3.3.66-4.5c.44-1.22,1.01-2.18,1.7-2.88.7-.71,1.49-1.23,2.37-1.55.86-.32,1.71-.47,2.55-.47,2.02.02,3.73.71,5.12,2.06,1.42,1.37,2.14,3.26,2.16,5.66v3.02h-11.02ZM78.66,15.08c-.04-1.42-.42-2.5-1.11-3.23-.68-.69-1.56-1.04-2.63-1.04s-1.95.35-2.63,1.04c-.67.73-1.04,1.81-1.11,3.23h7.47Z"/>
      <path class="cls-1" d="M87.04,1.32h2.02v22.22h9.42v2.3h-11.44V1.32Z"/>
      <path class="cls-1" d="M100.55,16.89c0-5.59,2.85-9.4,7.13-9.4s7.13,3.81,7.13,9.4-2.87,9.4-7.13,9.4-7.13-3.81-7.13-9.4ZM112.5,16.89c0-4.2-1.92-7.1-4.81-7.1s-4.81,2.92-4.81,7.1,1.92,7.1,4.81,7.1,4.81-2.92,4.81-7.1Z"/>
      <path class="cls-1" d="M117.72,16.89c0-5.59,2.85-9.4,7.13-9.4s7.13,3.81,7.13,9.4-2.87,9.4-7.13,9.4-7.13-3.81-7.13-9.4ZM129.66,16.89c0-4.2-1.92-7.1-4.81-7.1s-4.81,2.92-4.81,7.1,1.92,7.1,4.81,7.1,4.81-2.92,4.81-7.1Z"/>
      <path class="cls-1" d="M135.91,7.95h2.2v3.15c.97-2.23,2.84-3.6,5.06-3.6,3.93,0,6.45,4.18,6.45,9.35,0,5.55-2.73,9.46-6.59,9.46-2.27,0-4-1.55-4.84-3.38v10.14h-2.27V7.95ZM147.31,16.86c0-3.83-1.6-7.07-4.53-7.07s-4.6,3.25-4.6,6.91v.51c0,3.53,1.78,6.79,4.6,6.79,2.98,0,4.53-3.29,4.53-7.14Z"/>
      <path class="cls-1" d="M151.48,27.14h1.7c.56-.02.96-.35,1.18-.98.24-.57.35-1.24.35-2.01v-4.64c0-.8.12-1.48.37-2.06.22-.57.48-1.04.8-1.41.68-.72,1.19-1.1,1.53-1.16v-.07c-.14-.07-.35-.19-.63-.35-.27-.16-.57-.43-.9-.79-.32-.36-.58-.83-.8-1.41-.25-.57-.37-1.27-.37-2.09v-4.61c0-.8-.12-1.5-.36-2.09-.23-.57-.62-.87-1.19-.9h-1.7V.21h2.95c.97,0,1.79.35,2.44,1.04.62.7.95,1.69.97,2.95v5.08c0,1.22.25,2.24.73,3.06.47.82,1.13,1.26,2,1.33l.08,2.37c-.89.02-1.58.44-2.06,1.26-.5.81-.76,1.83-.76,3.06v5.15c-.02,1.24-.34,2.21-.96,2.9-.65.7-1.47,1.07-2.44,1.09h-2.96v-2.35Z"/>
    </g>
  </g>
</svg>